<svg width="76" height="75" fill="none" xmlns="http://www.w3.org/2000/svg"><path d="M20.064 56.038H55.95V19.256H20.064v36.782z" fill="#fff"/><path d="m64.02 54.627-8.074 1.411-1.473 7.57 1.473 8.983 16.149-16.552-8.075-1.412z" fill="#EA4335"/><path d="M3.908 56.038v11.035c0 3.049 2.409 5.518 5.383 5.518h10.766l1.658-8.276-1.658-8.276-8.798-1.412-7.35 1.411z" fill="#188038"/><path d="M72.095 19.257V8.222c0-3.049-2.409-5.518-5.383-5.518H55.946c-.982 4.105-1.473 7.126-1.473 9.063 0 1.936.491 4.433 1.473 7.49 3.572 1.048 6.263 1.572 8.075 1.572 1.81 0 4.502-.524 8.074-1.572z" fill="#1967D2"/><path d="M55.941 56.038H72.09V19.256H55.94v36.782z" fill="#FBBC04"/><path d="M20.064 72.591H55.95V56.04H20.064v16.552z" fill="#34A853"/><path d="M55.942 2.704H9.292c-2.975 0-5.384 2.47-5.384 5.518v47.817h16.149V19.257h35.885V2.704z" fill="#4285F4"/><path d="M27.42 47.79c-1.342-.928-2.27-2.284-2.777-4.078l3.113-1.315c.282 1.104.776 1.96 1.48 2.566.7.607 1.552.906 2.548.906 1.018 0 1.893-.318 2.624-.952.731-.635 1.099-1.444 1.099-2.423 0-1.002-.386-1.82-1.157-2.455-.772-.635-1.74-.952-2.898-.952h-1.799v-3.159h1.615c.996 0 1.834-.275 2.516-.828.682-.551 1.023-1.305 1.023-2.266 0-.855-.305-1.536-.915-2.046-.61-.51-1.382-.768-2.32-.768-.914 0-1.64.248-2.18.75a4.412 4.412 0 0 0-1.174 1.843l-3.082-1.315c.408-1.186 1.157-2.234 2.256-3.14 1.1-.906 2.503-1.36 4.208-1.36 1.26 0 2.395.248 3.4.749 1.005.5 1.794 1.195 2.364 2.078.57.887.852 1.88.852 2.984 0 1.126-.264 2.078-.794 2.86-.53.781-1.18 1.379-1.951 1.797v.189a5.95 5.95 0 0 1 2.503 2c.65.896.978 1.968.978 3.218s-.31 2.368-.929 3.347c-.619.98-1.475 1.752-2.561 2.313-1.09.561-2.315.846-3.674.846-1.574.005-3.028-.46-4.369-1.388zm19.12-15.833-3.417 2.533-1.71-2.657 6.132-4.534h2.35v21.384H46.54V31.956z" fill="#4285F4"/></svg>