<svg width="75" height="75" fill="none" xmlns="http://www.w3.org/2000/svg"><path d="M43.89 3.41H16.725c-2.554 0-4.792 2.167-4.792 4.649V66.94c0 2.48 2.235 4.65 4.795 4.65h41.546c2.556 0 4.795-2.168 4.795-4.65V22.003l-11.185-7.748-7.992-10.846z" fill="#4285F4"/><path d="M24.713 52.995H50.28v-3.098H24.716l-.003 3.098zm0 6.198h19.174v-3.098H24.713v3.098zm0-21.694v3.098H50.28v-3.098H24.713zm0 9.297H50.28v-3.098H24.716l-.003 3.098z" fill="#F1F1F1"/><path d="M43.877 3.41v13.946c0 2.479 2.236 4.647 4.792 4.647h14.382L43.877 3.409z" fill="#A1C2FA"/></svg>