<svg version="1.2" xmlns="http://www.w3.org/2000/svg" width="75" height="75"><defs><clipPath clipPathUnits="userSpaceOnUse" id="a"><path d="M0 9h75v56.25H0z"/></clipPath></defs><g clip-path="url(#a)"><path d="M5.1 65.3H17v-29L0 23.5v36.6c0 2.9 2.3 5.2 5.1 5.2z" fill="#4285f4"/><path d="M58 65.3h11.9c2.8 0 5.1-2.3 5.1-5.2V23.5L58 36.3" fill="#34a853"/><path d="M58 14.1v22.2l17-12.8v-6.8c0-6.4-7.2-10-12.3-6.2" fill="#fbbc04"/><path d="M17 36.3V14.1l20.5 15.4L58 14.1v22.2L37.5 51.6" fill="#ea4335"/><path d="M0 16.7v6.8l17 12.8V14.1l-4.7-3.6C7.2 6.7 0 10.3 0 16.7z" fill="#c5221f"/></g></svg>