<svg width="75" height="75" fill="none" xmlns="http://www.w3.org/2000/svg"><path d="m42.195 37.424 6.97 7.888 9.37 5.93 1.635-13.77-1.634-13.462-9.551 5.21-6.79 8.204z" fill="#00832D"/><path d="M1.752 49.964v11.731c0 2.682 2.194 4.854 4.902 4.854h11.847l2.451-8.867-2.451-7.718-8.13-2.427-8.62 2.427z" fill="#0066DA"/><path d="M18.5 8.298 1.753 24.884l8.62 2.427 8.129-2.427 2.41-7.614-2.41-8.972z" fill="#E94235"/><path d="M18.5 24.884H1.753v25.08H18.5v-25.08z" fill="#2684FC"/><path d="m69.239 15.32-10.703 8.69v27.232l10.752 8.73c1.61 1.246 3.963.109 3.963-1.918V17.198c0-2.051-2.407-3.176-4.012-1.877zM42.196 37.425v12.54H18.502V66.55h35.132c2.708 0 4.902-2.172 4.902-4.854V51.242l-16.34-13.818z" fill="#00AC47"/><path d="M53.634 8.298H18.502v16.586h23.694v12.54l16.34-13.406V13.152c0-2.681-2.194-4.854-4.902-4.854z" fill="#FFBA00"/></svg>