<svg width="75" height="75" fill="none" xmlns="http://www.w3.org/2000/svg"><rect x="3.408" y="3.409" width="68.182" height="68.182" rx="20" fill="url(#a)"/><path d="M14.553 26.372v16.782a6.862 6.862 0 0 0 2.035 4.844 6.882 6.882 0 0 0 4.87 1.99h24.498a1.252 1.252 0 0 0 1.256-1.24V31.967a6.862 6.862 0 0 0-2.035-4.844 6.882 6.882 0 0 0-4.87-1.99h-24.49a1.252 1.252 0 0 0-1.264 1.24zm34.219 6.547 10.114-7.378c.878-.727 1.56-.544 1.56.771v22.497c0 1.497-.833 1.315-1.56.77l-10.114-7.362v-9.298z" fill="#fff"/><defs><linearGradient id="a" x1="37.499" y1="3.409" x2="37.499" y2="71.591" gradientUnits="userSpaceOnUse"><stop stop-color="#539DFF"/><stop offset="1" stop-color="#2777FC"/></linearGradient></defs></svg>